# xmcd
#
# Track frame offsets:
#	150
#	20252
#	37395
#	57267
#	77180
#	98602
#	116907
#	142097
#	165392
#	184062
#	202570
#	218810
#
# Disc length: 3173 seconds
# Revision: 9
# Processed by: cddbd v1.5.2PL0 Copyright (c) Steve Scherf et al.
# Submitted via: dBpowerAMP V12.0
#
DISCID=a20c630c
DTITLE=All Saints - Saints and Sinners
DYEAR=2000
DGENRE=R&B
TTITLE0=Pure Shores
TTITLE1=All Hooked Up
TTITLE2=Dreams
TTITLE3=Distance
TTITLE4=Black Coffee
TTITLE5=Whoopin' Over You
TTITLE6=I Feel You
TTITLE7=Surrender
TTITLE8=Ha Ha
TTITLE9=Love Is Love
TTITLE10=Ready, Willing And Able
TTITLE11=Saints and Sinners
EXTD=
EXTT0=
EXTT1=
EXTT2=
EXTT3=
EXTT4=
EXTT5=
EXTT6=
EXTT7=
EXTT8=
EXTT9=
EXTT10=
EXTT11=
PLAYORDER=
